<?xml version="1.0" standalone="no"?>
<!DOCTYPE svg PUBLIC "-//W3C//DTD SVG 20010904//EN"
 "http://www.w3.org/TR/2001/REC-SVG-20010904/DTD/svg10.dtd">
<svg version="1.0" xmlns="http://www.w3.org/2000/svg"
 width="260.000000pt" height="260.000000pt" viewBox="0 0 260.000000 260.000000"
 preserveAspectRatio="xMidYMid meet">
<metadata>
Created by potrace 1.14, written by Peter Selinger 2001-2017
</metadata>
<g transform="translate(0.000000,260.000000) scale(0.100000,-0.100000)"
fill="#000000" stroke="none">
<path d="M0 1300 l0 -1300 1300 0 1300 0 0 1300 0 1300 -1300 0 -1300 0 0
-1300z m2095 705 c128 -34 242 -120 306 -232 40 -70 81 -175 72 -184 -9 -8
-233 -53 -237 -48 -2 2 -19 36 -39 74 -64 128 -167 194 -283 182 -200 -21
-314 -209 -300 -497 8 -166 38 -263 111 -347 54 -64 113 -87 216 -87 77 0 94
3 145 30 73 37 110 93 127 188 l11 66 123 0 123 0 0 -42 c0 -68 -27 -174 -57
-229 -57 -106 -186 -196 -323 -225 -88 -19 -230 -17 -311 4 -185 49 -340 223
-396 447 -24 99 -25 373 0 465 60 226 205 381 407 434 74 20 231 20 305 1z
m-1732 -472 c4 -512 4 -518 63 -583 100 -110 338 -112 434 -4 57 66 60 91 60
596 l0 458 120 0 120 0 0 -467 c0 -517 -3 -544 -62 -656 -89 -166 -252 -244
-488 -234 -220 10 -359 93 -436 261 -48 104 -53 173 -54 647 0 240 3 439 7
442 3 4 57 7 119 7 l113 0 4 -467z"/>
</g>
</svg>
